<?xml version="1.0" encoding="UTF-8"?>
<svg width="19px" height="34px" viewBox="0 0 19 34" version="1.1" xmlns="http://www.w3.org/2000/svg" xmlns:xlink="http://www.w3.org/1999/xlink">
    <!-- Generator: Sketch 51.2 (57519) - http://www.bohemiancoding.com/sketch -->
    <title>Artboard</title>
    <desc>Created with Sketch.</desc>
    <defs>
        <path d="M9.5,13.872 C15.2487667,8.92042308 16.7833333,7.09488462 16.7833333,5.08169231 C16.7833333,3.51246154 15.5242667,2.28846154 13.775,2.28846154 C12.7908,2.28846154 11.7743,2.75073077 11.1492,3.46930769 L9.5,5.36546154 L7.8508,3.46930769 C7.22633333,2.75007692 6.2092,2.28846154 5.225,2.28846154 C3.47573333,2.28846154 2.21666667,3.51311538 2.21666667,5.08169231 C2.21666667,7.09488462 3.75123333,8.92042308 9.5,13.872 Z M8.6602,1.16123077 L9.5,1.94061538 L10.3398,1.16253846 C11.3395007,0.414837397 12.5405509,0.00837865079 13.775,0 C16.72,0 19,2.21719231 19,5.08169231 C19,8.59284615 15.77,11.4566923 10.83,15.7066923 L9.5,17 L8.17,15.7066923 C3.23,11.4566923 0,8.59284615 0,5.08169231 C0,2.21784615 2.28,0 5.225,0 C6.45366667,0 7.68233333,0.427615385 8.6602,1.16188462 L8.6602,1.16123077 Z" id="path-1"></path>
        <path d="M8.6602,1.12543333 L9.5,1.8791 L10.3398,1.12543333 C11.3395766,0.401414971 12.5406204,0.00793140564 13.775,-1.77635684e-15 C16.72,-1.11891977e-15 19,2.14763333 19,4.92226667 C19,8.32326667 15.77,11.0972667 10.83,15.2139333 L9.5,16.4666667 L8.17,15.2139333 C3.23,11.0972667 0,8.32326667 0,4.92226667 C0,2.14826667 2.28,-1.11891977e-15 5.225,-1.11891977e-15 C6.45366667,-1.11891977e-15 7.68233333,0.4142 8.6602,1.12543333 Z" id="path-3"></path>
    </defs>
    <g id="Artboard" stroke="none" stroke-width="1" fill="none" fill-rule="evenodd">
        <g id="ico-favorite">
            <mask id="mask-2" fill="white">
                <use xlink:href="#path-1"></use>
            </mask>
            <g id="a"></g>
            <g id="Group" mask="url(#mask-2)" fill="#7D060F" fill-rule="nonzero">
                <g transform="translate(-22.166667, -24.192308)" id="Shape">
                    <polygon points="0 0 63.3333333 0 63.3333333 65.3846154 0 65.3846154"></polygon>
                </g>
            </g>
        </g>
        <g id="ico-favorite-fill" transform="translate(0.000000, 17.000000)">
            <mask id="mask-4" fill="white">
                <use xlink:href="#path-3"></use>
            </mask>
            <g id="a"></g>
            <g id="Group" mask="url(#mask-4)" fill="#7D060F" fill-rule="nonzero">
                <g transform="translate(-22.166667, -23.433333)" id="Shape">
                    <polygon points="0 0 63.3333333 0 63.3333333 63.3333333 0 63.3333333"></polygon>
                </g>
            </g>
        </g>
    </g>
</svg>