<svg xmlns="http://www.w3.org/2000/svg" xmlns:xlink="http://www.w3.org/1999/xlink" width="22" height="30" viewBox="0 0 22 30">
    <defs>
        <path id="a" d="M15.135 6.912V2.608c0-1.432-1.22-2.608-2.707-2.608L2.707.001C1.22.001 0 1.177 0 2.61v14.786c0 1.432 1.22 2.608 2.707 2.608h4.827l.69.621s.748 3.003 2.808 5.078v.777a.98.98 0 0 0-.612.898v1.644c0 .54.455.979 1.016.979h8.17c.56 0 1.015-.438 1.015-.979v-1.644a.976.976 0 0 0-.597-.89c.235-2.104 1.275-11.138 1.813-11.615 0-.003.675-2.104-.723-3.15-.334-.25-4.36-3.416-5.98-4.81zM12.41 1.5c.598 0 1.09.415 1.09.922V15.94c-.23.475-.795.608-1.5.546V1.5h.41zm-9.782 17c-.619 0-1.128-.426-1.128-.947V2.447c0-.52.507-.947 1.128-.947H10.5v14.534a24.465 24.465 0 0 1-2.067-.969s-4.15-3.295-5.94-1.873c0 0-.988 1.249.896 2.922L6.425 18.5H2.628zm.118-11.634c0 .933.785 1.689 1.753 1.689.968 0 1.753-.756 1.753-1.689 0-.513-.238-.972-.613-1.281.375-.31.613-.769.613-1.282 0-.932-.785-1.688-1.753-1.688-.968 0-1.753.756-1.753 1.688 0 .513.238.972.613 1.282-.376.31-.613.768-.613 1.281z"/>
    </defs>
    <g fill="none" fill-rule="evenodd">
        <mask id="b" fill="#fff">
            <use xlink:href="#a"/>
        </mask>
        <use fill="#000" fill-rule="nonzero" xlink:href="#a"/>
        <g fill="#7d060f" fill-rule="nonzero" mask="url(#b)">
            <path d="M-41.905-35h105V65h-105z"/>
        </g>
    </g>
</svg>
