<svg xmlns="http://www.w3.org/2000/svg" xmlns:xlink="http://www.w3.org/1999/xlink" width="28" height="30" viewBox="0 0 28 30">
    <defs>
        <path id="a" d="M1.699 7.384l1.019 18.772C2.718 28.279 4.625 30 6.98 30h14.08c2.354 0 4.262-1.72 4.262-3.844l.98-18.772H1.699zm25.794-1.332c.004-.792.007-.845.007-.898 0-2.064-1.327-3.197-3.108-3.197l-4.959.005C19.433.878 18.283 0 17.108 0h-6.173C9.758 0 8.57.878 8.57 1.962l-4.963-.005C1.641 1.957.5 3.337.5 5.154l.007.898h26.988-.002zm-9.227 6.264c0-.599.526-1.083 1.176-1.083.65 0 1.177.484 1.177 1.083V24.73c0 .6-.527 1.084-1.177 1.084s-1.176-.485-1.176-1.084V12.316zm-5.443 0c0-.599.527-1.083 1.178-1.083.649 0 1.176.484 1.176 1.083V24.73c0 .6-.527 1.084-1.176 1.084-.651 0-1.178-.485-1.178-1.084V12.316zm-5.439 0c0-.599.528-1.083 1.177-1.083.65 0 1.177.484 1.177 1.083V24.73c0 .6-.526 1.084-1.177 1.084-.649 0-1.177-.485-1.177-1.084V12.316z"/>
    </defs>
    <g fill="none" fill-rule="evenodd">
        <mask id="b" fill="#fff">
            <use xlink:href="#a"/>
        </mask>
        <use fill="#000" fill-rule="nonzero" xlink:href="#a"/>
        <g fill="#121212" fill-rule="nonzero" mask="url(#b)">
            <path d="M-36-35H64V65H-36z"/>
        </g>
    </g>
</svg>
