<svg xmlns="http://www.w3.org/2000/svg" xmlns:xlink="http://www.w3.org/1999/xlink" width="30" height="30" viewBox="0 0 30 30"><defs><path id="a" d="M20.603 2.82l2.84 7.344h-3.396l-2.299-6.142a2.09 2.09 0 0 1-1.3-1.726 2.063 2.063 0 0 1 .951-1.929 2.208 2.208 0 0 1 2.202-.1A2.076 2.076 0 0 1 20.735 2.1c0 .246-.044.489-.132.72zm-10.65 7.344l2.293-6.142a2.093 2.093 0 0 0 1.335-1.91A2.09 2.09 0 0 0 12.288.175a2.204 2.204 0 0 0-2.343.397 2.047 2.047 0 0 0-.538 2.248l-2.84 7.344h3.386zm-7.886 1.062l25.848.001c1.15 0 2.085.905 2.085 2.022v2.567c0 1.117-.934 2.023-2.085 2.023h-.73l-2.09 9.64c-.086.37-.254.718-.496 1.015a3.58 3.58 0 0 1-.906.796 4.58 4.58 0 0 1-1.179.52 4.91 4.91 0 0 1-1.363.19H8.85a4.931 4.931 0 0 1-1.347-.19 4.588 4.588 0 0 1-1.18-.52 3.595 3.595 0 0 1-.905-.796 2.488 2.488 0 0 1-.511-1.014l-2.092-9.641h-.73C.935 17.839 0 16.933 0 15.816V13.25c0-1.117.934-2.022 2.085-2.022l-.018-.001zm16.949 14.25a.569.569 0 0 0 .156.439.615.615 0 0 0 .44.188h1.244-.002c.297 0 .55-.212.594-.496l1.022-6.533a.567.567 0 0 0-.138-.467.6.6 0 0 0-.455-.202h-1.726a.59.59 0 0 0-.595.535l-.54 6.535zm-5.553-6.466l.243 6.532c.012.313.277.56.6.56h1.388a.592.592 0 0 0 .6-.56l.242-6.532a.57.57 0 0 0-.163-.43.61.61 0 0 0-.437-.182h-1.883a.606.606 0 0 0-.428.185.565.565 0 0 0-.162.427zm-5.933.067l1.021 6.532a.595.595 0 0 0 .594.496h1.244-.002a.606.606 0 0 0 .44-.188.567.567 0 0 0 .157-.44l-.536-6.532v.001a.592.592 0 0 0-.597-.535H8.123a.604.604 0 0 0-.453.2.565.565 0 0 0-.14.463v.003z"/></defs><g fill="none" fill-rule="evenodd"><mask id="b" fill="#fff"><use xlink:href="#a"/></mask><g fill="#fff" fill-rule="nonzero" mask="url(#b)"><path d="M-35-35H65V65H-35z"/></g></g></svg>