<svg xmlns="http://www.w3.org/2000/svg" xmlns:xlink="http://www.w3.org/1999/xlink" width="30" height="30" viewBox="0 0 30 30">
    <defs>
        <path id="a" d="M53.79 50l10.437 10.438c1.03 1.03 1.03 2.76 0 3.789-1.031 1.03-2.76 1.03-3.79 0L50.002 53.79 39.563 64.194c-1.03 1.032-2.759 1.032-3.788 0-1.031-1.03-1.031-2.759 0-3.788l10.437-10.438-10.439-10.405c-1.03-1.03-1.03-2.759 0-3.788 1.031-1.031 2.76-1.031 3.79 0l10.436 10.437 10.407-10.439c1.03-1.03 2.759-1.03 3.788 0 1.032 1.031 1.032 2.76 0 3.79L53.79 50z"/>
    </defs>
    <g fill="none" fill-rule="evenodd" transform="translate(-35 -35)">
        <mask id="b" fill="#fff">
            <use xlink:href="#a"/>
        </mask>
        <g fill="#121212" fill-rule="nonzero" mask="url(#b)">
            <path d="M0 0h100v100H0z"/>
        </g>
    </g>
</svg>
