<svg xmlns="http://www.w3.org/2000/svg" xmlns:xlink="http://www.w3.org/1999/xlink" width="28" height="22" viewBox="0 0 28 22">
    <defs>
        <path id="a" d="M0 0h30v30H0z"/>
    </defs>
    <g fill="none" fill-rule="evenodd" transform="translate(-1 -4)">
        <mask id="b" fill="#fff">
            <use xlink:href="#a"/>
        </mask>
        <path fill="#D3D3D3" d="M26.712 7.663c.628 0 1.166.213 1.615.64.449.425.673.953.673 1.58V23.48c0 .628-.224 1.167-.673 1.615a2.203 2.203 0 0 1-1.615.673H3.288a2.203 2.203 0 0 1-1.615-.673A2.203 2.203 0 0 1 1 23.48V9.884c0-.628.224-1.156.673-1.582.449-.426.987-.64 1.615-.64h4.645l2.625-2.692c.404-.493.964-.74 1.682-.74h5.654c.584 0 1.1.224 1.548.673l2.76 2.76h4.51zM15 22.403c1.705 0 3.163-.617 4.375-1.85 1.212-1.235 1.817-2.704 1.817-4.41 0-1.705-.605-3.174-1.817-4.408C18.163 10.5 16.705 9.884 15 9.884s-3.163.617-4.375 1.85c-1.212 1.235-1.817 2.704-1.817 4.41 0 1.705.605 3.174 1.817 4.408 1.212 1.234 2.67 1.851 4.375 1.851zM26.308 11.23c.628 0 .942-.314.942-.942 0-.629-.314-.943-.942-.943-.629 0-.943.314-.943.943 0 .628.314.942.943.942zM15 11.432c1.301 0 2.412.46 3.332 1.38.92.92 1.38 2.03 1.38 3.331 0 1.302-.46 2.412-1.38 3.332-.92.92-2.03 1.38-3.332 1.38-1.301 0-2.412-.46-3.332-1.38-.92-.92-1.38-2.03-1.38-3.332 0-1.3.46-2.411 1.38-3.331.92-.92 2.03-1.38 3.332-1.38z" mask="url(#b)"/>
    </g>
</svg>
