<svg xmlns="http://www.w3.org/2000/svg" xmlns:xlink="http://www.w3.org/1999/xlink" width="30" height="30" viewBox="0 0 30 30">
    <defs>
        <path id="a" d="M17.93 17.7a2.944 2.944 0 0 1 3.461-1.165l3.15 1.136 3.234 1.169a3.463 3.463 0 0 1 1.94 2.002c.242.63.297 1.175.283 1.839C29.997 26.779 26.79 30 22.78 30h-.752C9.775 29.62 0 19.536 0 7.198 0 2.843 2.192.116 6.684 0a8.879 8.879 0 0 1 1.288.112c.24.038.73.133.544.1l.167.04c1.305.411 2.176.995 2.516 1.944l2.269 6.369a2.97 2.97 0 0 1-1.11 3.425c-.67.464-1.205.837-1.603 1.119 1.299 2.632 3.493 4.8 6.175 6.121l1-1.53zM7.547 2.806a6.242 6.242 0 0 0-.739-.076l-.088-.003C3.867 2.8 2.727 4.22 2.727 7.199c0 10.865 8.605 19.74 19.343 20.074h.71c2.501 0 4.49-1.998 4.49-4.519 0-.072 0-.072.002-.13.007-.34-.018-.584-.104-.808-.084-.22-.211-.362-.385-.437a81123.151 81123.151 0 0 1-6.319-2.28.219.219 0 0 0-.25.091l-2.245 3.433-1.034-.41c-4.158-1.646-7.51-4.944-9.13-9.035.095-1.4.095-1.4.27-1.448.087-.089.087-.089.138-.133.05-.043.107-.088.178-.143.117-.089.283-.21.503-.368.425-.305 1.062-.75 1.916-1.342a.243.243 0 0 0 .087-.268L8.66 3.192a3.552 3.552 0 0 0-.734-.318 14.828 14.828 0 0 0-.378-.068z"/>
    </defs>
    <g fill="none" fill-rule="evenodd">
        <path d="M0 0h30v30H0z"/>
        <mask id="b" fill="#fff">
            <use xlink:href="#a"/>
        </mask>
        <g fill="#121212" fill-rule="nonzero" mask="url(#b)">
            <path d="M-35-35H65V65H-35z"/>
        </g>
    </g>
</svg>
