<svg xmlns="http://www.w3.org/2000/svg" xmlns:xlink="http://www.w3.org/1999/xlink" width="30" height="30" viewBox="0 0 30 30">
    <defs>
        <path id="a" d="M18.79 15l10.437 10.438c1.03 1.03 1.03 2.76 0 3.789-1.031 1.03-2.76 1.03-3.79 0L15.002 18.79 4.563 29.194c-1.03 1.032-2.759 1.032-3.788 0-1.031-1.03-1.031-2.759 0-3.788l10.437-10.438L.773 4.563c-1.03-1.03-1.03-2.759 0-3.788 1.031-1.031 2.76-1.031 3.79 0l10.436 10.437L25.406.773c1.03-1.03 2.759-1.03 3.788 0 1.032 1.031 1.032 2.76 0 3.79L18.79 15z"/>
    </defs>
    <g fill="none" fill-rule="evenodd">
        <path d="M0 0h30v30H0z"/>
        <mask id="b" fill="#fff">
            <use xlink:href="#a"/>
        </mask>
        <g fill="#121212" fill-rule="nonzero" mask="url(#b)">
            <path d="M-35-35H65V65H-35z"/>
        </g>
    </g>
</svg>
