<svg xmlns="http://www.w3.org/2000/svg" xmlns:xlink="http://www.w3.org/1999/xlink" width="30" height="30" viewBox="0 0 30 30">
    <defs>
        <path id="a" d="M.5 2v26a2 2 0 0 0 2 2h19a2 2 0 0 0 2-2V2a2 2 0 0 0-2-2h-19a2 2 0 0 0-2 2zm20.968 26H3.947c-.8 0-1.447-.648-1.447-1.447V3.447C2.5 2.647 3.148 2 3.947 2h16.106c.8 0 1.447.648 1.447 1.447v24.537a.016.016 0 0 1-.016.016zM5.866 15.304c-.786-1.32-.922-2.437-.922-3.182a3.17 3.17 0 0 1 1.06-2.268c.58-.508 1.606-1.016 3.076-.712 1.743.373 2.528 1.456 2.87 2.167.342-.745 1.161-1.795 2.837-2.167 1.47-.304 2.495.204 3.075.712.65.542 1.026 1.389 1.06 2.268.035.712-.102 1.828-.922 3.182-1.402 2.37-5.433 5.316-5.913 5.655l-.104.101-.136-.101c-.206-.135-4.58-3.352-5.98-5.655z"/>
    </defs>
    <g fill="none" fill-rule="evenodd" transform="translate(3)">
        <mask id="b" fill="#fff">
            <use xlink:href="#a"/>
        </mask>
        <g fill="#121212" fill-rule="nonzero" mask="url(#b)">
            <path d="M-38-35H62V65H-38z"/>
        </g>
    </g>
</svg>
