<svg xmlns="http://www.w3.org/2000/svg" xmlns:xlink="http://www.w3.org/1999/xlink" width="22" height="30" viewBox="0 0 22 30">
    <defs>
        <path id="a" d="M19.479 12.605c0-.028.004-.054.004-.083V8.198c0-2.184-.884-4.24-2.49-5.792A8.572 8.572 0 0 0 11 0C6.322 0 2.517 3.677 2.517 8.198v4.324c0 .029.004.055.004.084C.947 14.446 0 16.802 0 19.37 0 25.232 4.934 30 11 30s11-4.768 11-10.63c0-2.568-.947-4.926-2.52-6.764h-.001zM10.999 4c1.064 0 2.067.461 2.826 1.3C14.583 6.137 15 7.246 15 8.42V10a7.887 7.887 0 0 0-4-1.097A7.898 7.898 0 0 0 7 10V8.42C7 5.983 8.795 4 11 4zM11 28c-4.963 0-9-3.813-9-8.5 0-4.687 4.038-8.5 9-8.5s9 3.813 9 8.5c0 4.687-4.038 8.5-9 8.5zm0-14.035c-3.084 0-5.593 2.425-5.593 5.405 0 2.98 2.509 5.405 5.593 5.405s5.593-2.424 5.593-5.405c0-2.98-2.509-5.405-5.593-5.405zm1.021 5.853v2.956H9.98v-2.956a2.043 2.043 0 0 1-1.102-1.798c0-1.133.95-2.052 2.123-2.052 1.172 0 2.123.92 2.123 2.052 0 .775-.446 1.45-1.102 1.798z"/>
    </defs>
    <g fill="none" fill-rule="evenodd">
        <mask id="b" fill="#fff">
            <use xlink:href="#a"/>
        </mask>
        <use fill="#000" fill-rule="nonzero" xlink:href="#a"/>
        <g fill="#7d060f" fill-rule="nonzero" mask="url(#b)">
            <path d="M-39-35H61V65H-39z"/>
        </g>
    </g>
</svg>
