<svg xmlns="http://www.w3.org/2000/svg" xmlns:xlink="http://www.w3.org/1999/xlink" width="30" height="30" viewBox="0 0 30 30">
    <defs>
        <path id="a" d="M19.059 0c3.341 0 6.103 2.615 6.712 5.998h.81C28.461 5.998 30 7.553 30 9.439v17.12C30 28.445 28.462 30 26.58 30H3.175C1.43 30 0 28.56 0 26.815v-8.747c0-1.748 1.43-3.196 3.175-3.196h4.954V9.44c0-1.887 1.538-3.441 3.42-3.441h.809C12.966 2.616 15.718 0 19.058 0zm-7.677 17H3.618C2.727 17 2 17.73 2 18.625v7.759C2 27.276 2.727 28 3.618 28h7.764c.891 0 1.618-.724 1.618-1.616v-7.759C13 17.73 12.273 17 11.382 17zm-.429 1.415a.681.681 0 0 1 .671.692v1.2c0 1-.628 1.797-1.411 2.246-.783.449-1.738.642-2.69.642-.953 0-1.907-.193-2.69-.642-.783-.449-1.412-1.247-1.412-2.245v-1.2l.001-.001a.684.684 0 0 1 .196-.49.685.685 0 0 1 .97 0c.13.131.2.307.198.49v1.2c0 .47.226.776.726 1.062.5.286 1.254.46 2.012.462.756 0 1.513-.174 2.01-.46.5-.287.727-.592.727-1.065v-1.2a.684.684 0 0 1 .692-.69zM19 2c-1.918 0-3.563 1.698-4 4h8c-.437-2.301-2.082-4-4-4z"/>
    </defs>
    <g fill="none" fill-rule="evenodd">
        <mask id="b" fill="#fff">
            <use xlink:href="#a"/>
        </mask>
        <use fill="#000" fill-rule="nonzero" xlink:href="#a"/>
        <g fill="#000" fill-rule="nonzero" mask="url(#b)">
            <path d="M-35-35H65V65H-35z"/>
        </g>
    </g>
</svg>
