<svg xmlns="http://www.w3.org/2000/svg" xmlns:xlink="http://www.w3.org/1999/xlink" width="30" height="30" viewBox="0 0 30 30">
    <defs>
        <path id="a" d="M12.72 12.355h3.836v8.791h.722v2.063h-4.557v-2.063h.72v-6.729h-.72v-2.062zM16.8 8.61a1.8 1.8 0 1 1-3.599 0 1.8 1.8 0 0 1 3.599 0zM15 30c8.284 0 15-6.715 15-15 0-8.284-6.716-15-15-15C6.716 0 0 6.716 0 15c0 8.285 6.716 15 15 15z"/>
    </defs>
    <g fill="none" fill-rule="evenodd">
        <mask id="b" fill="#fff">
            <use xlink:href="#a"/>
        </mask>
        <g fill="#fff" fill-rule="nonzero" mask="url(#b)">
            <path d="M-37.905-35h105V65h-105z"/>
        </g>
    </g>
</svg>
