<svg xmlns="http://www.w3.org/2000/svg" xmlns:xlink="http://www.w3.org/1999/xlink" width="30" height="30" viewBox="0 0 30 30">
    <defs>
        <path id="a" d="M23.748 11.416c.088-3.85-.848-7.02-2.704-8.987C19.525.819 17.487 0 14.987 0c-2.496 0-4.533.822-6.054 2.443-2.38 2.538-2.78 6.333-2.72 8.984-1.29.48-2.213 1.7-2.213 3.142v12.064C4 28.493 5.525 30 7.406 30h15.188C24.475 30 26 28.493 26 26.633V14.57c0-1.455-.94-2.686-2.252-3.153zM11.888 5.15c.736-.784 1.75-1.166 3.097-1.166 1.356 0 2.373.38 3.108 1.16 1.104 1.171 1.682 3.349 1.636 6.06h-9.49c-.044-2.661.55-4.88 1.65-6.054zm4.44 15.362v2.642c0 .732-.602 1.328-1.343 1.328a1.337 1.337 0 0 1-1.344-1.328v-2.642a2.397 2.397 0 0 1-1.092-2.005c0-1.328 1.09-2.407 2.436-2.407 1.345 0 2.435 1.077 2.435 2.407 0 .838-.435 1.573-1.092 2.005z"/>
    </defs>
    <g fill="none" fill-rule="evenodd">
        <path fill-rule="nonzero" d="M0 0h30v30H0z"/>
        <mask id="b" fill="#fff">
            <use xlink:href="#a"/>
        </mask>
        <use fill="#fff" fill-rule="nonzero" xlink:href="#a"/>
        <g fill="#ffffff" fill-rule="nonzero" mask="url(#b)">
            <path d="M-35-35H65V65H-35z"/>
        </g>
    </g>
</svg>
