<svg xmlns="http://www.w3.org/2000/svg" xmlns:xlink="http://www.w3.org/1999/xlink" width="250" height="205" viewBox="0 0 250 205">
    <defs>
        <linearGradient id="a" x1="50%" x2="50%" y1="0%" y2="100%">
            <stop offset="0%" stop-color="#F0ECE0"/>
            <stop offset="100%" stop-color="#D4CEBD"/>
        </linearGradient>
        <filter id="b" width="115.1%" height="123.2%" x="-6.5%" y="-10.4%" filterUnits="objectBoundingBox">
            <feOffset dx="2" dy="4" in="SourceAlpha" result="shadowOffsetOuter1"/>
            <feGaussianBlur in="shadowOffsetOuter1" result="shadowBlurOuter1" stdDeviation="5"/>
            <feColorMatrix in="shadowBlurOuter1" result="shadowMatrixOuter1" values="0 0 0 0 0 0 0 0 0 0 0 0 0 0 0 0 0 0 0.3 0"/>
            <feMerge>
                <feMergeNode in="shadowMatrixOuter1"/>
                <feMergeNode in="SourceGraphic"/>
            </feMerge>
        </filter>
        <linearGradient id="c" x1="40.036%" x2="70.635%" y1="-101.209%" y2="363.228%">
            <stop offset="0%" stop-color="#777"/>
            <stop offset="100%" stop-color="#3B4041"/>
        </linearGradient>
        <linearGradient id="d" x1="19.314%" x2="149.064%" y1="62.488%" y2="62.488%">
            <stop offset="0%" stop-color="#C4C4C4"/>
            <stop offset="29.263%" stop-color="#B4B4B4"/>
            <stop offset="65.9%" stop-color="#A1A1A1"/>
            <stop offset="100%" stop-color="#6C6C6C"/>
        </linearGradient>
        <linearGradient id="e" x1="49.999%" x2="49.999%" y1="52.003%" y2="140.53%">
            <stop offset="0%" stop-color="#969696" stop-opacity="0"/>
            <stop offset="100%" stop-color="#969696"/>
        </linearGradient>
        <linearGradient id="f" x1="35.465%" x2="110.437%" y1="35.492%" y2="110.464%">
            <stop offset="0%" stop-color="#FFB92D"/>
            <stop offset="100%" stop-color="#F59500"/>
        </linearGradient>
        <linearGradient id="g" x1="35.461%" x2="110.433%" y1="35.492%" y2="110.464%">
            <stop offset="0%" stop-color="#FFB92D"/>
            <stop offset="100%" stop-color="#F59500"/>
        </linearGradient>
        <linearGradient id="j" x1="29.168%" x2="70.627%" y1=".341%" y2="99.119%">
            <stop offset="0%" stop-color="#D63305"/>
            <stop offset="36.6%" stop-color="#CF3004"/>
            <stop offset="89.9%" stop-color="#BC2602"/>
            <stop offset="100%" stop-color="#B72401"/>
        </linearGradient>
        <circle id="i" cx="26" cy="26" r="26"/>
        <filter id="h" width="130.8%" height="130.8%" x="-15.4%" y="-13.5%" filterUnits="objectBoundingBox">
            <feOffset dy="1" in="SourceAlpha" result="shadowOffsetOuter1"/>
            <feGaussianBlur in="shadowOffsetOuter1" result="shadowBlurOuter1" stdDeviation="2.5"/>
            <feColorMatrix in="shadowBlurOuter1" values="0 0 0 0 0 0 0 0 0 0 0 0 0 0 0 0 0 0 0.201511549 0"/>
        </filter>
        <path id="k" d="M29.912 13.912H18.088V2.088A2.1 2.1 0 0 0 16 0a2.1 2.1 0 0 0-2.088 2.088v11.824H2.088A2.1 2.1 0 0 0 0 16c0 .572.236 1.112.607 1.482.37.37.909.606 1.481.606h11.824v11.824c0 .572.235 1.112.606 1.481.372.371.91.607 1.482.607a2.1 2.1 0 0 0 2.088-2.088V18.088h11.824A2.1 2.1 0 0 0 32 16a2.1 2.1 0 0 0-2.088-2.088z"/>
    </defs>
    <g fill="none" fill-rule="evenodd">
        <path fill="url(#a)" fill-rule="nonzero" d="M114.754 205C190.054 205 250 135.588 250 80.497 250 25.52 187.333 0 134.221 0 82.044 0 0 53.86 0 108.403 0 163.928 39.341 205 114.754 205z"/>
        <g filter="url(#b)" transform="translate(8 20)">
            <g fill-rule="nonzero">
                <path fill="#FFF" d="M218.124 124.748L47.33 148.75c-7.528 1.058-14.48-4.124-15.526-11.575l-12.909-91.85c-1.047-7.451 4.207-14.349 11.734-15.407L201.423 5.916c7.528-1.058 14.48 4.124 15.527 11.575l12.908 91.85c1.047 7.451-4.207 14.349-11.734 15.407z"/>
                <path fill="url(#c)" d="M.187 20.223h200v20h-200z" transform="rotate(-8 236.128 -105.638)"/>
            </g>
            <g fill-rule="nonzero">
                <path fill="url(#d)" d="M186.235 120H13.765C6.162 120 0 113.9 0 106.377V13.623C0 6.1 6.163 0 13.764 0h172.472C193.837 0 200 6.1 200 13.623v92.754C200 113.9 193.837 120 186.235 120z" transform="rotate(-12 221.6 23.291)"/>
                <path fill="url(#e)" d="M.118 71.589v32.205c0 8.723 6.163 15.795 13.765 15.795h172.471c7.602 0 13.764-7.072 13.764-15.795V71.589h-200z" transform="rotate(-12 221.6 23.291)"/>
                <g fill="#FFF">
                    <path d="M25 97.95L142.378 73l2.495 11.738-117.378 24.95zM29 118.395L77.908 108l2.079 9.781-48.907 10.396z"/>
                </g>
                <path fill="#F8E71C" d="M45.376 80.415l-17.721 3.767c-2.745.584-5.278-1.061-5.86-3.806l-3.768-17.721c-.583-2.745 1.062-5.278 3.806-5.86l17.722-3.768c2.744-.583 5.277 1.062 5.86 3.806l3.767 17.722c.584 2.744-1.062 5.277-3.806 5.86z"/>
                <g transform="rotate(-12 548.71 -721.505)">
                    <circle cx="12.068" cy="11.681" r="12" fill="url(#f)"/>
                    <circle cx="28.342" cy="12.073" r="12" fill="url(#g)"/>
                </g>
            </g>
            <g fill-rule="nonzero" transform="translate(160)">
                <use fill="#000" filter="url(#h)" xlink:href="#i"/>
                <use fill="url(#j)" xlink:href="#i"/>
            </g>
            <g transform="translate(170 10)">
                <mask id="l" fill="#fff">
                    <use xlink:href="#k"/>
                </mask>
                <use fill="#000" fill-rule="nonzero" xlink:href="#k"/>
                <g fill="#FFF" fill-rule="nonzero" mask="url(#l)">
                    <path d="M-37.333-37.333H69.334V69.334H-37.333z"/>
                </g>
            </g>
        </g>
    </g>
</svg>
