<svg xmlns="http://www.w3.org/2000/svg" width="250" height="205" viewBox="0 0 250 205">
    <defs>
        <linearGradient id="a" x1="50%" x2="50%" y1="0%" y2="100%">
            <stop offset="0%" stop-color="#F0ECE0"/>
            <stop offset="100%" stop-color="#D4CEBD"/>
        </linearGradient>
        <filter id="b" width="121.9%" height="121.7%" x="-9.7%" y="-8.3%" filterUnits="objectBoundingBox">
            <feOffset dx="2" dy="4" in="SourceAlpha" result="shadowOffsetOuter1"/>
            <feGaussianBlur in="shadowOffsetOuter1" result="shadowBlurOuter1" stdDeviation="5"/>
            <feColorMatrix in="shadowBlurOuter1" result="shadowMatrixOuter1" values="0 0 0 0 0 0 0 0 0 0 0 0 0 0 0 0 0 0 0.3 0"/>
            <feMerge>
                <feMergeNode in="shadowMatrixOuter1"/>
                <feMergeNode in="SourceGraphic"/>
            </feMerge>
        </filter>
        <linearGradient id="c" x1="10.101%" x2="114.828%" y1="7.575%" y2="118.922%">
            <stop offset="0%" stop-color="#FFF"/>
            <stop offset="100%" stop-color="#E8EFEE"/>
        </linearGradient>
        <linearGradient id="d" x1="100.874%" x2="-4.781%" y1="-11.475%" y2="110.158%">
            <stop offset="0%" stop-color="#C2CECE" stop-opacity="0"/>
            <stop offset="17.9%" stop-color="#AFBCBC" stop-opacity=".179"/>
            <stop offset="100%" stop-color="#5B6A6A"/>
        </linearGradient>
        <linearGradient id="e" x1="104.039%" x2="12.903%" y1="53.7%" y2="-30.188%">
            <stop offset="0%" stop-color="#C2CECE" stop-opacity="0"/>
            <stop offset="17.9%" stop-color="#AFBCBC" stop-opacity=".179"/>
            <stop offset="100%" stop-color="#5B6A6A"/>
        </linearGradient>
        <linearGradient id="f" x1="50.002%" x2="50.002%" y1="31.801%" y2="93.176%">
            <stop offset="0%" stop-color="#C4C4C4"/>
            <stop offset="26.8%" stop-color="#B4B4B4"/>
            <stop offset="65.9%" stop-color="#A1A1A1"/>
            <stop offset="100%" stop-color="#6C6C6C"/>
        </linearGradient>
        <linearGradient id="g" x1="29.168%" x2="70.627%" y1=".341%" y2="99.119%">
            <stop offset="0%" stop-color="#D63305"/>
            <stop offset="36.6%" stop-color="#CF3004"/>
            <stop offset="89.9%" stop-color="#BC2602"/>
            <stop offset="100%" stop-color="#B72401"/>
        </linearGradient>
        <linearGradient id="h" x1="24.788%" x2="-52.394%" y1="23.179%" y2="-58.914%">
            <stop offset="0%" stop-color="#C2CECE" stop-opacity="0"/>
            <stop offset="17.9%" stop-color="#AFBCBC" stop-opacity=".179"/>
            <stop offset="100%" stop-color="#5B6A6A"/>
        </linearGradient>
    </defs>
    <g fill="none" fill-rule="evenodd">
        <path fill="url(#a)" fill-rule="nonzero" d="M176.963 204.98c49.02 0 22.912-45.219 62.871-84.831 34.088-33.792-23.605-99.224-83.402-115.127C61.177-18.443.704 44.728.635 103.182c.069 28.085 19.023 64.785 71.256 47.264 50.996-18.551-21.98 54.533 105.072 54.533z" transform="matrix(-1 0 0 1 250.635 0)"/>
        <g filter="url(#b)" transform="translate(47.619 24.095)">
            <path fill="#848484" fill-rule="nonzero" d="M73.378 1.974L.106 61.889v11.166h154.55V61.889L81.384 1.974a6.31 6.31 0 0 0-8.006 0z"/>
            <path fill="url(#c)" fill-rule="nonzero" d="M141.918 134.98H12.844c-3.517 0-6.37-2.886-6.37-6.445V6.445C6.475 2.885 9.327 0 12.845 0h129.074c3.517 0 6.369 2.886 6.369 6.445v122.09c0 3.56-2.851 6.445-6.369 6.445z"/>
            <path fill="url(#d)" fill-rule="nonzero" d="M148.287 124.945v2.509c0 4.155-3.332 7.526-7.438 7.526H13.913c-4.106 0-7.438-3.372-7.438-7.526v-2.51h141.812z"/>
            <g fill="#C2CECE" fill-rule="nonzero">
                <path d="M36.407 20.409h81.946v4.727H36.407zM36.407 39.314h81.946v4.727H36.407zM36.407 58.649h81.946v4.727H36.407zM36.407 77.985h81.946v4.727H36.407z"/>
            </g>
            <path fill="url(#e)" fill-rule="nonzero" d="M128.544 63.807c-6.353 0-12.175-2.299-16.702-6.115l-1.768.314 38.213 38.67V54.666c-4.788 5.596-11.854 9.142-19.743 9.142z"/>
            <path fill="url(#f)" fill-rule="nonzero" d="M154.656 62.032v88.139c0 3.557-2.853 6.445-6.369 6.445H6.475c-3.516 0-6.369-2.888-6.369-6.445V62.03l78.124 62.36 76.426-62.36z"/>
            <path fill="url(#f)" fill-rule="nonzero" d="M153.797 153.393l-71.57-58.396a6.31 6.31 0 0 0-7.994 0l-72.66 59.286a6.327 6.327 0 0 0 4.902 2.333h141.812c2.356 0 4.408-1.298 5.51-3.223z"/>
            <circle cx="128.381" cy="39.252" r="26" fill="url(#g)" fill-rule="nonzero"/>
            <path fill="#FFF" d="M131.184 45.283h-5.323L125.113 22h6.819l-.748 23.283zM125 52.466c0-1.047.325-1.906.974-2.575.65-.67 1.495-1.005 2.537-1.005 1.027 0 1.865.335 2.515 1.005.65.67.974 1.528.974 2.575 0 1.032-.32 1.879-.963 2.54-.642.663-1.484.994-2.526.994-1.057 0-1.906-.331-2.548-.993-.642-.662-.963-1.51-.963-2.541z"/>
            <path fill="url(#h)" fill-rule="nonzero" d="M8.46 130.545V8.455c0-3.56 2.852-6.446 6.37-6.446h129.074c1.25 0 2.412.37 3.395 1C146.171 1.202 144.185 0 141.92 0H12.843c-3.517 0-6.37 2.886-6.37 6.445v122.09a6.452 6.452 0 0 0 2.974 5.446 6.464 6.464 0 0 1-.987-3.436z"/>
        </g>
    </g>
</svg>
