<svg xmlns="http://www.w3.org/2000/svg" width="218" height="44" viewBox="0 0 218 44"><path fill="#B39F66" d="M207.163 20.697c3.839.148 10.97 2.89 10.97 12.222 0 9.247-6.89 11.69-10.531 11.69H188.76c-.655 0-6.236-.114-9.753-3.831a10.756 10.756 0 0 1-2.825-7.67c-.034-1.212.906-2.223 2.102-2.26 1.196.035 2.138 1.045 2.106 2.256a6.161 6.161 0 0 0 1.573 4.46c2.399 2.532 6.806 2.532 6.826 2.532h18.812c1.045-.015 6.318-.428 6.318-7.176 0-7.236-6.134-7.682-6.834-7.71h-19.231a10.43 10.43 0 0 1-7.434-2.884c-2.055-2.07-3.098-5.024-3.098-8.779-.3-6.318 4.408-11.735 10.635-12.238.055-.007.107-.007.16-.007h16.501a9.264 9.264 0 0 1 6.055 2.433V2.263A2.144 2.144 0 0 1 211.69.308a2.09 2.09 0 0 1 2.182 0 2.144 2.144 0 0 1 1.015 1.955v9.78a2.144 2.144 0 0 1-1.015 1.954 2.09 2.09 0 0 1-2.182 0 2.144 2.144 0 0 1-1.016-1.955v-1.48c-.681-1.228-2.909-4.747-6.055-4.747h-16.404c-3.928.32-6.89 3.748-6.683 7.732a7.58 7.58 0 0 0 1.751 5.468 6.435 6.435 0 0 0 4.455 1.682h19.425zm-39.726 12.678h.002c1.212.004 2.192 1.002 2.189 2.23v6.354c.003 1.227-.977 2.226-2.189 2.23h-34.923c-1.216 0-2.202-.999-2.202-2.23 0-1.232.986-2.23 2.202-2.23h3.555v-14.9h-3.555c-1.216 0-2.202-.998-2.202-2.23 0-1.231.986-2.23 2.202-2.23h3.555V5.852h-3.555c-1.216 0-2.202-.998-2.202-2.23s.986-2.23 2.202-2.23h33.462c1.212.005 2.191 1.003 2.188 2.23v6.523a2.222 2.222 0 0 1-1.08 1.96 2.165 2.165 0 0 1-2.217 0 2.222 2.222 0 0 1-1.08-1.96V5.852h-23.341V20.37h15.5c1.216 0 2.202.999 2.202 2.23 0 1.232-.986 2.23-2.202 2.23h-15.5v14.9h24.8v-4.124c-.003-1.228.976-2.226 2.189-2.23zM119.508 1.068c1.195.013 2.153 1.004 2.14 2.214a2.207 2.207 0 0 1-.618 1.556c-.402.415-.95.652-1.525.657h-3.356v35.837a2.212 2.212 0 0 1-1.427 2.089c-.229.083-.47.126-.713.125a2.114 2.114 0 0 1-1.665-.825L86.336 9.296v29.823h3.356c1.188.026 2.138 1.01 2.138 2.214s-.95 2.187-2.138 2.213H78.693c-1.188-.026-2.138-1.01-2.138-2.213 0-1.204.95-2.188 2.138-2.214h3.356V5.495h-3.356c-1.194-.013-2.152-1.004-2.14-2.213-.012-1.21.946-2.2 2.14-2.214h5.708a2.114 2.114 0 0 1 1.668.826l25.797 33.157V5.496h-3.356c-1.194-.013-2.153-1.004-2.14-2.214-.013-1.21.946-2.2 2.14-2.214h10.998zM66.17 5.495h-3.356V39.12h3.356a2.212 2.212 0 0 1 1.998 2.214c0 1.15-.867 2.11-1.998 2.213H55.473a2.212 2.212 0 0 1-1.997-2.213c0-1.15.866-2.11 1.997-2.214h3.356V5.495h-3.356c-1.152-.057-2.042-1.046-1.992-2.213-.05-1.167.84-2.157 1.992-2.214H66.17c1.153.057 2.043 1.047 1.993 2.214.05 1.167-.84 2.156-1.993 2.213zM46.463 1.387h.004c1.198 0 2.17.983 2.17 2.197 0 1.213-.972 2.197-2.17 2.197h-3.474L26.29 42.272a2.175 2.175 0 0 1-1.973 1.274 2.175 2.175 0 0 1-1.974-1.274L5.64 5.781H2.17C.97 5.78 0 4.797 0 3.584 0 2.37.971 1.387 2.17 1.387h9.725c1.198 0 2.17.983 2.17 2.197 0 1.213-.972 2.197-2.17 2.197h-1.463l13.883 30.332L38.198 5.78h-1.46c-1.198 0-2.17-.984-2.17-2.197 0-1.214.972-2.197 2.17-2.197h9.725z"/></svg>