<svg xmlns="http://www.w3.org/2000/svg" width="145" height="30" viewBox="0 0 145 30">
    <path fill="#FFF" fill-rule="nonzero" d="M137.4 13.515c2.546.097 7.276 1.888 7.276 7.981 0 6.038-4.569 7.633-6.985 7.633h-12.496c-.434 0-4.136-.074-6.469-2.5a6.96 6.96 0 0 1-1.873-5.01 1.437 1.437 0 0 1 1.394-1.475 1.437 1.437 0 0 1 1.397 1.473 3.986 3.986 0 0 0 1.043 2.913c1.591 1.653 4.515 1.653 4.528 1.653h12.476c.694-.01 4.191-.28 4.191-4.686 0-4.725-4.068-5.016-4.533-5.034h-12.755a6.978 6.978 0 0 1-4.93-1.884c-1.363-1.351-2.055-3.28-2.055-5.733-.198-4.125 2.924-7.663 7.054-7.991.036-.005.07-.005.106-.005h10.944a6.197 6.197 0 0 1 4.016 1.589v-.961A1.394 1.394 0 0 1 140.403.2a1.403 1.403 0 0 1 1.447 0c.445.268.704.76.674 1.277v6.386a1.394 1.394 0 0 1-.674 1.276 1.403 1.403 0 0 1-1.447 0 1.394 1.394 0 0 1-.674-1.276v-.966c-.452-.803-1.93-3.1-4.016-3.1h-10.88a4.817 4.817 0 0 0-4.432 5.048 4.9 4.9 0 0 0 1.161 3.57 4.306 4.306 0 0 0 2.955 1.1h12.884zm-26.348 8.279h.002a1.454 1.454 0 0 1 1.451 1.456v4.15a1.454 1.454 0 0 1-1.451 1.456H87.89c-.807 0-1.46-.652-1.46-1.457 0-.804.653-1.456 1.46-1.456h2.358v-9.73H87.89c-.807 0-1.46-.651-1.46-1.456 0-.804.653-1.456 1.46-1.456h2.358v-9.48H87.89c-.807 0-1.46-.652-1.46-1.456 0-.804.653-1.456 1.46-1.456h22.194a1.454 1.454 0 0 1 1.45 1.456v4.26a1.446 1.446 0 0 1-.716 1.28 1.455 1.455 0 0 1-1.47 0 1.446 1.446 0 0 1-.716-1.28V3.82H93.152v9.48h10.28c.807 0 1.46.652 1.46 1.456 0 .805-.653 1.457-1.46 1.457h-10.28v9.729H109.6V23.25a1.454 1.454 0 0 1 1.451-1.456zM79.264.697a1.433 1.433 0 0 1 1.42 1.446 1.438 1.438 0 0 1-1.422 1.445h-2.226V26.99a1.445 1.445 0 0 1-.947 1.364 1.41 1.41 0 0 1-1.577-.457L57.262 6.07v19.475h2.226c.788.017 1.418.66 1.418 1.445 0 .787-.63 1.429-1.418 1.446h-7.295a1.448 1.448 0 0 1-1.418-1.446c0-.786.63-1.428 1.418-1.445h2.226V3.588h-2.226a1.433 1.433 0 0 1-1.42-1.445 1.433 1.433 0 0 1 1.42-1.446h3.786c.432.001.84.2 1.106.54l17.11 21.651V3.59h-2.226a1.433 1.433 0 0 1-1.42-1.446A1.433 1.433 0 0 1 71.97.697h7.295zM43.887 3.588h-2.225v21.957h2.225c.75.068 1.325.695 1.325 1.445 0 .751-.574 1.378-1.325 1.446h-7.095a1.453 1.453 0 0 1-1.324-1.446c0-.75.574-1.377 1.324-1.445h2.226V3.588h-2.226a1.389 1.389 0 0 1-1.321-1.445A1.389 1.389 0 0 1 36.792.697h7.095a1.389 1.389 0 0 1 1.322 1.446 1.389 1.389 0 0 1-1.322 1.445zM30.817.905h.002c.795 0 1.439.643 1.439 1.435 0 .793-.644 1.435-1.44 1.435h-2.303L17.436 27.604a1.444 1.444 0 0 1-2.617 0L3.74 3.775H1.439C.644 3.775 0 3.133 0 2.34 0 1.548.644.905 1.44.905h6.45c.794 0 1.438.643 1.438 1.435 0 .793-.644 1.435-1.439 1.435h-.97l9.208 19.807 9.208-19.807h-.968c-.795 0-1.44-.642-1.44-1.435 0-.792.645-1.435 1.44-1.435h6.45z"/>
</svg>
